<svg width="124" height="27" viewBox="0 0 124 27" fill="none" xmlns="http://www.w3.org/2000/svg">
<rect x="0.5" y="0.5" width="123" height="26" rx="13" fill="#81F5C6"/>
<rect x="0.5" y="0.5" width="123" height="26" rx="13" stroke="#120F09"/>
<path d="M10 8.14287H11.0667V9.2143H10V8.14287Z" fill="black"/>
<path d="M24.9333 8.14287H26V9.2143H24.9333V8.14287Z" fill="black"/>
<path d="M10 9.21429H11.0667V10.2857H10V9.21429Z" fill="black"/>
<path d="M24.9333 9.21429H26V10.2857H24.9333V9.21429Z" fill="black"/>
<path d="M10 10.2857H11.0667V11.3571H10V10.2857Z" fill="black"/>
<path d="M24.9333 10.2857H26V11.3571H24.9333V10.2857Z" fill="black"/>
<path d="M11.0667 12.4286H12.1333V13.5H11.0667V12.4286Z" fill="black"/>
<path d="M23.8667 12.4286H24.9334V13.5H23.8667V12.4286Z" fill="black"/>
<path d="M10 11.3572H11.0667V12.4286H10V11.3572Z" fill="black"/>
<path d="M24.9333 11.3572H26V12.4286H24.9333V11.3572Z" fill="black"/>
<path d="M11.0667 13.5H12.1333V14.5714H11.0667V13.5Z" fill="black"/>
<path d="M23.8667 13.5H24.9334V14.5714H23.8667V13.5Z" fill="black"/>
<path d="M12.1333 14.5714H13.2V15.6429H12.1333V14.5714Z" fill="black"/>
<path d="M22.8 14.5714H23.8667V15.6429H22.8V14.5714Z" fill="black"/>
<path d="M13.2 15.6429H14.2666V16.7143H13.2V15.6429Z" fill="black"/>
<path d="M21.7334 15.6429H22.8001V16.7143H21.7334V15.6429Z" fill="black"/>
<path d="M14.2666 16.7143H15.3333V17.7857H14.2666V16.7143Z" fill="black"/>
<path d="M20.6665 16.7143H21.7332V17.7857H20.6665V16.7143Z" fill="black"/>
<path d="M15.3333 17.7857H16.3999V18.8572H15.3333V17.7857Z" fill="black"/>
<path d="M19.6001 17.7857H20.6668V18.8572H19.6001V17.7857Z" fill="black"/>
<path d="M11.0667 7.07145H12.1333V8.14288H11.0667V7.07145Z" fill="black"/>
<path d="M23.8667 7.07145H24.9334V8.14288H23.8667V7.07145Z" fill="black"/>
<path d="M13.2 6H14.2666V7.07143H13.2V6Z" fill="black"/>
<path d="M12.1333 6H13.2V7.07143H12.1333V6Z" fill="black"/>
<path d="M14.2666 6H15.3333V7.07143H14.2666V6Z" fill="black"/>
<path d="M13.2 7.07145H14.2666V8.14288H13.2V7.07145Z" fill="#FFEE93"/>
<path d="M12.1333 7.07145H13.2V8.14288H12.1333V7.07145Z" fill="#FFEE93"/>
<path d="M14.2666 7.07145H15.3333V8.14288H14.2666V7.07145Z" fill="#FFEE93"/>
<path d="M21.7334 7.07145H22.8001V8.14288H21.7334V7.07145Z" fill="#FFEE93"/>
<path d="M20.6665 7.07145H21.7332V8.14288H20.6665V7.07145Z" fill="#FFEE93"/>
<path d="M22.8 7.07145H23.8667V8.14288H22.8V7.07145Z" fill="#FFEE93"/>
<path d="M15.3333 7.07145H16.3999V8.14288H15.3333V7.07145Z" fill="black"/>
<path d="M11.0667 8.14287H12.1333V9.2143H11.0667V8.14287Z" fill="#FFEE93"/>
<path d="M13.2 8.14287H14.2666V9.2143H13.2V8.14287Z" fill="white"/>
<path d="M12.1333 8.14287H13.2V9.2143H12.1333V8.14287Z" fill="white"/>
<path d="M14.2666 8.14287H15.3333V9.2143H14.2666V8.14287Z" fill="#FFEE93"/>
<path d="M15.3333 8.14287H16.3999V9.2143H15.3333V8.14287Z" fill="#FFEE93"/>
<path d="M11.0667 9.21429H12.1333V10.2857H11.0667V9.21429Z" fill="#FFEE93"/>
<path d="M13.2 9.21429H14.2666V10.2857H13.2V9.21429Z" fill="#FFEE93"/>
<path d="M12.1333 9.21429H13.2V10.2857H12.1333V9.21429Z" fill="white"/>
<path d="M14.2666 9.2143H15.3333V10.2857H14.2666V9.2143Z" fill="#FFEE93"/>
<path d="M15.3333 9.2143H16.3999V10.2857H15.3333V9.2143Z" fill="#FFEE93"/>
<path d="M11.0667 10.2857H12.1333V11.3572H11.0667V10.2857Z" fill="#FFEE93"/>
<path d="M13.2 10.2857H14.2666V11.3572H13.2V10.2857Z" fill="#FFEE93"/>
<path d="M12.1333 10.2857H13.2V11.3572H12.1333V10.2857Z" fill="#FFEE93"/>
<path d="M14.2666 10.2857H15.3333V11.3572H14.2666V10.2857Z" fill="#FFEE93"/>
<path d="M15.3333 10.2857H16.3999V11.3572H15.3333V10.2857Z" fill="#FFEE93"/>
<path d="M11.0667 11.3572H12.1333V12.4286H11.0667V11.3572Z" fill="#FFEE93"/>
<path d="M13.2 11.3572H14.2666V12.4286H13.2V11.3572Z" fill="#FFEE93"/>
<path d="M12.1333 11.3572H13.2V12.4286H12.1333V11.3572Z" fill="#FFEE93"/>
<path d="M14.2666 11.3572H15.3333V12.4286H14.2666V11.3572Z" fill="#FFEE93"/>
<path d="M15.3333 11.3572H16.3999V12.4286H15.3333V11.3572Z" fill="#FFEE93"/>
<path d="M13.2 12.4286H14.2666V13.5H13.2V12.4286Z" fill="#FFEE93"/>
<path d="M12.1333 12.4286H13.2V13.5H12.1333V12.4286Z" fill="#FFEE93"/>
<path d="M14.2666 12.4286H15.3333V13.5H14.2666V12.4286Z" fill="#FFEE93"/>
<path d="M15.3333 12.4286H16.3999V13.5H15.3333V12.4286Z" fill="#FFEE93"/>
<path d="M13.2 13.5H14.2666V14.5714H13.2V13.5Z" fill="#FFEE93"/>
<path d="M12.1333 13.5H13.2V14.5714H12.1333V13.5Z" fill="#FFEE93"/>
<path d="M14.2666 13.5H15.3333V14.5714H14.2666V13.5Z" fill="#FFEE93"/>
<path d="M15.3333 13.5H16.3999V14.5714H15.3333V13.5Z" fill="#FFEE93"/>
<path d="M13.2 14.5714H14.2666V15.6429H13.2V14.5714Z" fill="#FFEE93"/>
<path d="M14.2666 14.5714H15.3333V15.6429H14.2666V14.5714Z" fill="#FFEE93"/>
<path d="M15.3333 14.5714H16.3999V15.6429H15.3333V14.5714Z" fill="#FFEE93"/>
<path d="M14.2666 15.6429H15.3333V16.7143H14.2666V15.6429Z" fill="#FFEE93"/>
<path d="M15.3333 15.6429H16.3999V16.7143H15.3333V15.6429Z" fill="#FFEE93"/>
<path d="M15.3333 16.7143H16.3999V17.7857H15.3333V16.7143Z" fill="#FFEE93"/>
<path d="M19.5999 8.14287H20.6665V9.2143H19.5999V8.14287Z" fill="#FFEE93"/>
<path d="M21.7334 8.14287H22.8001V9.2143H21.7334V8.14287Z" fill="#FFEE93"/>
<path d="M20.6667 8.14287H21.7334V9.2143H20.6667V8.14287Z" fill="#FFEE93"/>
<path d="M22.8 8.14287H23.8667V9.2143H22.8V8.14287Z" fill="#FFEE93"/>
<path d="M23.8667 8.14287H24.9334V9.2143H23.8667V8.14287Z" fill="#FFEE93"/>
<path d="M19.5999 9.2143H20.6665V10.2857H19.5999V9.2143Z" fill="#FFEE93"/>
<path d="M21.7334 9.2143H22.8001V10.2857H21.7334V9.2143Z" fill="#FFEE93"/>
<path d="M20.6667 9.2143H21.7334V10.2857H20.6667V9.2143Z" fill="#FFEE93"/>
<path d="M22.8 9.2143H23.8667V10.2857H22.8V9.2143Z" fill="#FFEE93"/>
<path d="M23.8667 9.2143H24.9334V10.2857H23.8667V9.2143Z" fill="#FFEE93"/>
<path d="M19.5999 10.2857H20.6665V11.3572H19.5999V10.2857Z" fill="#FFEE93"/>
<path d="M21.7334 10.2857H22.8001V11.3572H21.7334V10.2857Z" fill="#FFEE93"/>
<path d="M20.6667 10.2857H21.7334V11.3572H20.6667V10.2857Z" fill="#FFEE93"/>
<path d="M22.8 10.2857H23.8667V11.3572H22.8V10.2857Z" fill="#FFEE93"/>
<path d="M23.8667 10.2857H24.9334V11.3572H23.8667V10.2857Z" fill="#FFEE93"/>
<path d="M19.5999 11.3572H20.6665V12.4286H19.5999V11.3572Z" fill="#FFEE93"/>
<path d="M21.7334 11.3572H22.8001V12.4286H21.7334V11.3572Z" fill="#FFEE93"/>
<path d="M20.6667 11.3572H21.7334V12.4286H20.6667V11.3572Z" fill="#FFEE93"/>
<path d="M22.8 11.3572H23.8667V12.4286H22.8V11.3572Z" fill="#FFEE93"/>
<path d="M19.5999 12.4286H20.6665V13.5H19.5999V12.4286Z" fill="#FFEE93"/>
<path d="M21.7334 12.4286H22.8001V13.5H21.7334V12.4286Z" fill="#FFEE93"/>
<path d="M20.6667 12.4286H21.7334V13.5H20.6667V12.4286Z" fill="#FFEE93"/>
<path d="M22.8 12.4286H23.8667V13.5H22.8V12.4286Z" fill="#FFEE93"/>
<path d="M19.5999 13.5H20.6665V14.5714H19.5999V13.5Z" fill="#FFEE93"/>
<path d="M21.7334 13.5H22.8001V14.5714H21.7334V13.5Z" fill="#FFEE93"/>
<path d="M20.6667 13.5H21.7334V14.5714H20.6667V13.5Z" fill="#FFEE93"/>
<path d="M19.5999 14.5714H20.6665V15.6429H19.5999V14.5714Z" fill="#FFEE93"/>
<path d="M21.7334 14.5714H22.8001V15.6429H21.7334V14.5714Z" fill="#FFEE93"/>
<path d="M20.6667 14.5714H21.7334V15.6429H20.6667V14.5714Z" fill="#FFEE93"/>
<path d="M19.5999 15.6429H20.6665V16.7143H19.5999V15.6429Z" fill="#FFEE93"/>
<path d="M19.5999 16.7143H20.6665V17.7857H19.5999V16.7143Z" fill="#FFEE93"/>
<path d="M20.6667 15.6429H21.7334V16.7143H20.6667V15.6429Z" fill="#FFEE93"/>
<path d="M22.8 13.5H23.8667V14.5714H22.8V13.5Z" fill="#FFEE93"/>
<path d="M23.8667 11.3572H24.9334V12.4286H23.8667V11.3572Z" fill="#FFEE93"/>
<path d="M16.3999 8.14287H17.4666V9.2143H16.3999V8.14287Z" fill="black"/>
<path d="M17.4666 9.21429H18.5332V10.2857H17.4666V9.21429Z" fill="black"/>
<path d="M19.6001 7.07145H20.6668V8.14288H19.6001V7.07145Z" fill="black"/>
<path d="M18.5332 8.14287H19.5999V9.2143H18.5332V8.14287Z" fill="black"/>
<path d="M16.3999 9.21429H17.4666V10.2857H16.3999V9.21429Z" fill="#FFEE93"/>
<path d="M17.4666 10.2857H18.5332V11.3571H17.4666V10.2857Z" fill="#FFEE93"/>
<path d="M18.5332 9.21429H19.5999V10.2857H18.5332V9.21429Z" fill="#FFEE93"/>
<path d="M16.3999 10.2857H17.4666V11.3571H16.3999V10.2857Z" fill="#FFEE93"/>
<path d="M17.4666 11.3572H18.5332V12.4286H17.4666V11.3572Z" fill="#FFEE93"/>
<path d="M18.5332 10.2857H19.5999V11.3571H18.5332V10.2857Z" fill="#FFEE93"/>
<path d="M16.3999 11.3572H17.4666V12.4286H16.3999V11.3572Z" fill="#FFEE93"/>
<path d="M17.4666 12.4286H18.5332V13.5H17.4666V12.4286Z" fill="#FFEE93"/>
<path d="M18.5332 11.3572H19.5999V12.4286H18.5332V11.3572Z" fill="#FFEE93"/>
<path d="M16.3999 12.4286H17.4666V13.5H16.3999V12.4286Z" fill="#FFEE93"/>
<path d="M17.4666 13.5H18.5332V14.5714H17.4666V13.5Z" fill="#FFEE93"/>
<path d="M18.5332 12.4286H19.5999V13.5H18.5332V12.4286Z" fill="#FFEE93"/>
<path d="M16.3999 13.5H17.4666V14.5714H16.3999V13.5Z" fill="#FFEE93"/>
<path d="M17.4666 14.5714H18.5332V15.6429H17.4666V14.5714Z" fill="#FFEE93"/>
<path d="M18.5332 13.5H19.5999V14.5714H18.5332V13.5Z" fill="#FFEE93"/>
<path d="M16.3999 14.5714H17.4666V15.6429H16.3999V14.5714Z" fill="#FFEE93"/>
<path d="M17.4666 15.6429H18.5332V16.7143H17.4666V15.6429Z" fill="#FFEE93"/>
<path d="M18.5332 14.5714H19.5999V15.6429H18.5332V14.5714Z" fill="#FFEE93"/>
<path d="M16.3999 15.6429H17.4666V16.7143H16.3999V15.6429Z" fill="#FFEE93"/>
<path d="M17.4666 16.7143H18.5332V17.7857H17.4666V16.7143Z" fill="#FFEE93"/>
<path d="M18.5332 15.6429H19.5999V16.7143H18.5332V15.6429Z" fill="#FFEE93"/>
<path d="M16.3999 16.7143H17.4666V17.7857H16.3999V16.7143Z" fill="#FFEE93"/>
<path d="M17.4666 17.7857H18.5332V18.8572H17.4666V17.7857Z" fill="#FFEE93"/>
<path d="M18.5332 16.7143H19.5999V17.7857H18.5332V16.7143Z" fill="#FFEE93"/>
<path d="M16.3999 17.7857H17.4666V18.8572H16.3999V17.7857Z" fill="#FFEE93"/>
<path d="M17.4666 18.8571H18.5332V19.9286H17.4666V18.8571Z" fill="#FFEE93"/>
<path d="M18.5332 17.7857H19.5999V18.8572H18.5332V17.7857Z" fill="#FFEE93"/>
<path d="M16.3999 18.8571H17.4666V19.9286H16.3999V18.8571Z" fill="black"/>
<path d="M17.4666 19.9286H18.5332V21H17.4666V19.9286Z" fill="black"/>
<path d="M18.5332 18.8571H19.5999V19.9286H18.5332V18.8571Z" fill="black"/>
<path d="M20.6665 6H21.7332V7.07143H20.6665V6Z" fill="black"/>
<path d="M21.7334 6H22.8001V7.07143H21.7334V6Z" fill="black"/>
<path d="M22.8 6H23.8667V7.07143H22.8V6Z" fill="black"/>
<path d="M32 8.14287H33.0667V9.2143H32V8.14287Z" fill="black"/>
<path d="M46.9333 8.14287H48V9.2143H46.9333V8.14287Z" fill="black"/>
<path d="M32 9.21429H33.0667V10.2857H32V9.21429Z" fill="black"/>
<path d="M46.9333 9.21429H48V10.2857H46.9333V9.21429Z" fill="black"/>
<path d="M32 10.2857H33.0667V11.3571H32V10.2857Z" fill="black"/>
<path d="M46.9333 10.2857H48V11.3571H46.9333V10.2857Z" fill="black"/>
<path d="M33.0667 12.4286H34.1333V13.5H33.0667V12.4286Z" fill="black"/>
<path d="M45.8667 12.4286H46.9334V13.5H45.8667V12.4286Z" fill="black"/>
<path d="M32 11.3572H33.0667V12.4286H32V11.3572Z" fill="black"/>
<path d="M46.9333 11.3572H48V12.4286H46.9333V11.3572Z" fill="black"/>
<path d="M33.0667 13.5H34.1333V14.5714H33.0667V13.5Z" fill="black"/>
<path d="M45.8667 13.5H46.9334V14.5714H45.8667V13.5Z" fill="black"/>
<path d="M34.1333 14.5714H35.2V15.6429H34.1333V14.5714Z" fill="black"/>
<path d="M44.8 14.5714H45.8667V15.6429H44.8V14.5714Z" fill="black"/>
<path d="M35.2 15.6429H36.2666V16.7143H35.2V15.6429Z" fill="black"/>
<path d="M43.7334 15.6429H44.8001V16.7143H43.7334V15.6429Z" fill="black"/>
<path d="M36.2666 16.7143H37.3333V17.7857H36.2666V16.7143Z" fill="black"/>
<path d="M42.6665 16.7143H43.7332V17.7857H42.6665V16.7143Z" fill="black"/>
<path d="M37.3333 17.7857H38.3999V18.8572H37.3333V17.7857Z" fill="black"/>
<path d="M41.6001 17.7857H42.6668V18.8572H41.6001V17.7857Z" fill="black"/>
<path d="M33.0667 7.07145H34.1333V8.14288H33.0667V7.07145Z" fill="black"/>
<path d="M45.8667 7.07145H46.9334V8.14288H45.8667V7.07145Z" fill="black"/>
<path d="M35.2 6H36.2666V7.07143H35.2V6Z" fill="black"/>
<path d="M34.1333 6H35.2V7.07143H34.1333V6Z" fill="black"/>
<path d="M36.2666 6H37.3333V7.07143H36.2666V6Z" fill="black"/>
<path d="M35.2 7.07145H36.2666V8.14288H35.2V7.07145Z" fill="white"/>
<path d="M34.1333 7.07145H35.2V8.14288H34.1333V7.07145Z" fill="white"/>
<path d="M36.2666 7.07145H37.3333V8.14288H36.2666V7.07145Z" fill="white"/>
<path d="M43.7334 7.07145H44.8001V8.14288H43.7334V7.07145Z" fill="white"/>
<path d="M42.6665 7.07145H43.7332V8.14288H42.6665V7.07145Z" fill="white"/>
<path d="M44.8 7.07145H45.8667V8.14288H44.8V7.07145Z" fill="white"/>
<path d="M37.3333 7.07145H38.3999V8.14288H37.3333V7.07145Z" fill="black"/>
<path d="M33.0667 8.14287H34.1333V9.2143H33.0667V8.14287Z" fill="white"/>
<path d="M35.2 8.14287H36.2666V9.2143H35.2V8.14287Z" fill="white"/>
<path d="M34.1333 8.14287H35.2V9.2143H34.1333V8.14287Z" fill="white"/>
<path d="M36.2666 8.14287H37.3333V9.2143H36.2666V8.14287Z" fill="white"/>
<path d="M37.3333 8.14287H38.3999V9.2143H37.3333V8.14287Z" fill="white"/>
<path d="M33.0667 9.21429H34.1333V10.2857H33.0667V9.21429Z" fill="white"/>
<path d="M35.2 9.21429H36.2666V10.2857H35.2V9.21429Z" fill="white"/>
<path d="M34.1333 9.21429H35.2V10.2857H34.1333V9.21429Z" fill="white"/>
<path d="M36.2666 9.2143H37.3333V10.2857H36.2666V9.2143Z" fill="white"/>
<path d="M37.3333 9.2143H38.3999V10.2857H37.3333V9.2143Z" fill="white"/>
<path d="M33.0667 10.2857H34.1333V11.3572H33.0667V10.2857Z" fill="white"/>
<path d="M35.2 10.2857H36.2666V11.3572H35.2V10.2857Z" fill="white"/>
<path d="M34.1333 10.2857H35.2V11.3572H34.1333V10.2857Z" fill="white"/>
<path d="M36.2666 10.2857H37.3333V11.3572H36.2666V10.2857Z" fill="white"/>
<path d="M37.3333 10.2857H38.3999V11.3572H37.3333V10.2857Z" fill="white"/>
<path d="M33.0667 11.3572H34.1333V12.4286H33.0667V11.3572Z" fill="white"/>
<path d="M35.2 11.3572H36.2666V12.4286H35.2V11.3572Z" fill="white"/>
<path d="M34.1333 11.3572H35.2V12.4286H34.1333V11.3572Z" fill="white"/>
<path d="M36.2666 11.3572H37.3333V12.4286H36.2666V11.3572Z" fill="white"/>
<path d="M37.3333 11.3572H38.3999V12.4286H37.3333V11.3572Z" fill="white"/>
<path d="M35.2 12.4286H36.2666V13.5H35.2V12.4286Z" fill="white"/>
<path d="M34.1333 12.4286H35.2V13.5H34.1333V12.4286Z" fill="white"/>
<path d="M36.2666 12.4286H37.3333V13.5H36.2666V12.4286Z" fill="white"/>
<path d="M37.3333 12.4286H38.3999V13.5H37.3333V12.4286Z" fill="white"/>
<path d="M35.2 13.5H36.2666V14.5714H35.2V13.5Z" fill="white"/>
<path d="M34.1333 13.5H35.2V14.5714H34.1333V13.5Z" fill="white"/>
<path d="M36.2666 13.5H37.3333V14.5714H36.2666V13.5Z" fill="white"/>
<path d="M37.3333 13.5H38.3999V14.5714H37.3333V13.5Z" fill="white"/>
<path d="M35.2 14.5714H36.2666V15.6429H35.2V14.5714Z" fill="white"/>
<path d="M36.2666 14.5714H37.3333V15.6429H36.2666V14.5714Z" fill="white"/>
<path d="M37.3333 14.5714H38.3999V15.6429H37.3333V14.5714Z" fill="white"/>
<path d="M36.2666 15.6429H37.3333V16.7143H36.2666V15.6429Z" fill="white"/>
<path d="M37.3333 15.6429H38.3999V16.7143H37.3333V15.6429Z" fill="white"/>
<path d="M37.3333 16.7143H38.3999V17.7857H37.3333V16.7143Z" fill="white"/>
<path d="M41.5999 8.14287H42.6665V9.2143H41.5999V8.14287Z" fill="white"/>
<path d="M43.7332 8.14287H44.7998V9.2143H43.7332V8.14287Z" fill="white"/>
<path d="M42.6665 8.14287H43.7332V9.2143H42.6665V8.14287Z" fill="white"/>
<path d="M44.7998 8.14287H45.8665V9.2143H44.7998V8.14287Z" fill="white"/>
<path d="M45.8667 8.14287H46.9334V9.2143H45.8667V8.14287Z" fill="white"/>
<path d="M41.5999 9.2143H42.6665V10.2857H41.5999V9.2143Z" fill="white"/>
<path d="M43.7332 9.2143H44.7998V10.2857H43.7332V9.2143Z" fill="white"/>
<path d="M42.6665 9.2143H43.7332V10.2857H42.6665V9.2143Z" fill="white"/>
<path d="M44.7998 9.2143H45.8665V10.2857H44.7998V9.2143Z" fill="white"/>
<path d="M45.8667 9.2143H46.9334V10.2857H45.8667V9.2143Z" fill="white"/>
<path d="M41.5999 10.2857H42.6665V11.3572H41.5999V10.2857Z" fill="white"/>
<path d="M43.7332 10.2857H44.7998V11.3572H43.7332V10.2857Z" fill="white"/>
<path d="M42.6665 10.2857H43.7332V11.3572H42.6665V10.2857Z" fill="white"/>
<path d="M44.7998 10.2857H45.8665V11.3572H44.7998V10.2857Z" fill="white"/>
<path d="M45.8667 10.2857H46.9334V11.3572H45.8667V10.2857Z" fill="white"/>
<path d="M41.5999 11.3572H42.6665V12.4286H41.5999V11.3572Z" fill="white"/>
<path d="M43.7332 11.3572H44.7998V12.4286H43.7332V11.3572Z" fill="white"/>
<path d="M42.6665 11.3572H43.7332V12.4286H42.6665V11.3572Z" fill="white"/>
<path d="M44.7998 11.3572H45.8665V12.4286H44.7998V11.3572Z" fill="white"/>
<path d="M41.5999 12.4286H42.6665V13.5H41.5999V12.4286Z" fill="white"/>
<path d="M43.7332 12.4286H44.7998V13.5H43.7332V12.4286Z" fill="white"/>
<path d="M42.6665 12.4286H43.7332V13.5H42.6665V12.4286Z" fill="white"/>
<path d="M44.7998 12.4286H45.8665V13.5H44.7998V12.4286Z" fill="white"/>
<path d="M41.5999 13.5H42.6665V14.5714H41.5999V13.5Z" fill="white"/>
<path d="M43.7332 13.5H44.7998V14.5714H43.7332V13.5Z" fill="white"/>
<path d="M42.6665 13.5H43.7332V14.5714H42.6665V13.5Z" fill="white"/>
<path d="M41.5999 14.5714H42.6665V15.6429H41.5999V14.5714Z" fill="white"/>
<path d="M43.7332 14.5714H44.7998V15.6429H43.7332V14.5714Z" fill="white"/>
<path d="M42.6665 14.5714H43.7332V15.6429H42.6665V14.5714Z" fill="white"/>
<path d="M41.5999 15.6429H42.6665V16.7143H41.5999V15.6429Z" fill="white"/>
<path d="M41.5999 16.7143H42.6665V17.7857H41.5999V16.7143Z" fill="white"/>
<path d="M42.6665 15.6429H43.7332V16.7143H42.6665V15.6429Z" fill="white"/>
<path d="M44.7998 13.5H45.8665V14.5714H44.7998V13.5Z" fill="white"/>
<path d="M45.8667 11.3572H46.9334V12.4286H45.8667V11.3572Z" fill="white"/>
<path d="M38.3999 8.14287H39.4666V9.2143H38.3999V8.14287Z" fill="black"/>
<path d="M39.4666 9.21429H40.5332V10.2857H39.4666V9.21429Z" fill="black"/>
<path d="M41.6001 7.07145H42.6668V8.14288H41.6001V7.07145Z" fill="black"/>
<path d="M40.5332 8.14287H41.5999V9.2143H40.5332V8.14287Z" fill="black"/>
<path d="M38.3999 9.21429H39.4666V10.2857H38.3999V9.21429Z" fill="white"/>
<path d="M39.4666 10.2857H40.5332V11.3571H39.4666V10.2857Z" fill="white"/>
<path d="M40.5332 9.21429H41.5999V10.2857H40.5332V9.21429Z" fill="white"/>
<path d="M38.3999 10.2857H39.4666V11.3571H38.3999V10.2857Z" fill="white"/>
<path d="M39.4666 11.3572H40.5332V12.4286H39.4666V11.3572Z" fill="white"/>
<path d="M40.5332 10.2857H41.5999V11.3571H40.5332V10.2857Z" fill="white"/>
<path d="M38.3999 11.3572H39.4666V12.4286H38.3999V11.3572Z" fill="white"/>
<path d="M39.4666 12.4286H40.5332V13.5H39.4666V12.4286Z" fill="white"/>
<path d="M40.5332 11.3572H41.5999V12.4286H40.5332V11.3572Z" fill="white"/>
<path d="M38.3999 12.4286H39.4666V13.5H38.3999V12.4286Z" fill="white"/>
<path d="M39.4666 13.5H40.5332V14.5714H39.4666V13.5Z" fill="white"/>
<path d="M40.5332 12.4286H41.5999V13.5H40.5332V12.4286Z" fill="white"/>
<path d="M38.3999 13.5H39.4666V14.5714H38.3999V13.5Z" fill="white"/>
<path d="M39.4666 14.5714H40.5332V15.6429H39.4666V14.5714Z" fill="white"/>
<path d="M40.5332 13.5H41.5999V14.5714H40.5332V13.5Z" fill="white"/>
<path d="M38.3999 14.5714H39.4666V15.6429H38.3999V14.5714Z" fill="white"/>
<path d="M39.4666 15.6429H40.5332V16.7143H39.4666V15.6429Z" fill="white"/>
<path d="M40.5332 14.5714H41.5999V15.6429H40.5332V14.5714Z" fill="white"/>
<path d="M38.3999 15.6429H39.4666V16.7143H38.3999V15.6429Z" fill="white"/>
<path d="M39.4666 16.7143H40.5332V17.7857H39.4666V16.7143Z" fill="white"/>
<path d="M40.5332 15.6429H41.5999V16.7143H40.5332V15.6429Z" fill="white"/>
<path d="M38.3999 16.7143H39.4666V17.7857H38.3999V16.7143Z" fill="white"/>
<path d="M39.4666 17.7857H40.5332V18.8572H39.4666V17.7857Z" fill="white"/>
<path d="M40.5332 16.7143H41.5999V17.7857H40.5332V16.7143Z" fill="white"/>
<path d="M38.3999 17.7857H39.4666V18.8572H38.3999V17.7857Z" fill="white"/>
<path d="M39.4666 18.8571H40.5332V19.9286H39.4666V18.8571Z" fill="white"/>
<path d="M40.5332 17.7857H41.5999V18.8572H40.5332V17.7857Z" fill="white"/>
<path d="M38.3999 18.8571H39.4666V19.9286H38.3999V18.8571Z" fill="black"/>
<path d="M39.4666 19.9286H40.5332V21H39.4666V19.9286Z" fill="black"/>
<path d="M40.5332 18.8571H41.5999V19.9286H40.5332V18.8571Z" fill="black"/>
<path d="M42.6665 6H43.7332V7.07143H42.6665V6Z" fill="black"/>
<path d="M43.7334 6H44.8001V7.07143H43.7334V6Z" fill="black"/>
<path d="M44.8 6H45.8667V7.07143H44.8V6Z" fill="black"/>
<path d="M54 8.14287H55.0667V9.2143H54V8.14287Z" fill="black"/>
<path d="M68.9333 8.14287H70V9.2143H68.9333V8.14287Z" fill="black"/>
<path d="M54 9.21429H55.0667V10.2857H54V9.21429Z" fill="black"/>
<path d="M68.9333 9.21429H70V10.2857H68.9333V9.21429Z" fill="black"/>
<path d="M54 10.2857H55.0667V11.3571H54V10.2857Z" fill="black"/>
<path d="M68.9333 10.2857H70V11.3571H68.9333V10.2857Z" fill="black"/>
<path d="M55.0667 12.4286H56.1333V13.5H55.0667V12.4286Z" fill="black"/>
<path d="M67.8667 12.4286H68.9334V13.5H67.8667V12.4286Z" fill="black"/>
<path d="M54 11.3572H55.0667V12.4286H54V11.3572Z" fill="black"/>
<path d="M68.9333 11.3572H70V12.4286H68.9333V11.3572Z" fill="black"/>
<path d="M55.0667 13.5H56.1333V14.5714H55.0667V13.5Z" fill="black"/>
<path d="M67.8667 13.5H68.9334V14.5714H67.8667V13.5Z" fill="black"/>
<path d="M56.1333 14.5714H57.2V15.6429H56.1333V14.5714Z" fill="black"/>
<path d="M66.8 14.5714H67.8667V15.6429H66.8V14.5714Z" fill="black"/>
<path d="M57.2 15.6429H58.2666V16.7143H57.2V15.6429Z" fill="black"/>
<path d="M65.7334 15.6429H66.8001V16.7143H65.7334V15.6429Z" fill="black"/>
<path d="M58.2666 16.7143H59.3333V17.7857H58.2666V16.7143Z" fill="black"/>
<path d="M64.6665 16.7143H65.7332V17.7857H64.6665V16.7143Z" fill="black"/>
<path d="M59.3333 17.7857H60.3999V18.8572H59.3333V17.7857Z" fill="black"/>
<path d="M63.6001 17.7857H64.6668V18.8572H63.6001V17.7857Z" fill="black"/>
<path d="M55.0667 7.07145H56.1333V8.14288H55.0667V7.07145Z" fill="black"/>
<path d="M67.8667 7.07145H68.9334V8.14288H67.8667V7.07145Z" fill="black"/>
<path d="M57.2 6H58.2666V7.07143H57.2V6Z" fill="black"/>
<path d="M56.1333 6H57.2V7.07143H56.1333V6Z" fill="black"/>
<path d="M58.2666 6H59.3333V7.07143H58.2666V6Z" fill="black"/>
<path d="M57.2 7.07145H58.2666V8.14288H57.2V7.07145Z" fill="white"/>
<path d="M56.1333 7.07145H57.2V8.14288H56.1333V7.07145Z" fill="white"/>
<path d="M58.2666 7.07145H59.3333V8.14288H58.2666V7.07145Z" fill="white"/>
<path d="M65.7334 7.07145H66.8001V8.14288H65.7334V7.07145Z" fill="white"/>
<path d="M64.6665 7.07145H65.7332V8.14288H64.6665V7.07145Z" fill="white"/>
<path d="M66.8 7.07145H67.8667V8.14288H66.8V7.07145Z" fill="white"/>
<path d="M59.3333 7.07145H60.3999V8.14288H59.3333V7.07145Z" fill="black"/>
<path d="M55.0667 8.14287H56.1333V9.2143H55.0667V8.14287Z" fill="white"/>
<path d="M57.2 8.14287H58.2666V9.2143H57.2V8.14287Z" fill="white"/>
<path d="M56.1333 8.14287H57.2V9.2143H56.1333V8.14287Z" fill="white"/>
<path d="M58.2666 8.14287H59.3333V9.2143H58.2666V8.14287Z" fill="white"/>
<path d="M59.3333 8.14287H60.3999V9.2143H59.3333V8.14287Z" fill="white"/>
<path d="M55.0667 9.21429H56.1333V10.2857H55.0667V9.21429Z" fill="white"/>
<path d="M57.2 9.21429H58.2666V10.2857H57.2V9.21429Z" fill="white"/>
<path d="M56.1333 9.21429H57.2V10.2857H56.1333V9.21429Z" fill="white"/>
<path d="M58.2666 9.2143H59.3333V10.2857H58.2666V9.2143Z" fill="white"/>
<path d="M59.3333 9.2143H60.3999V10.2857H59.3333V9.2143Z" fill="white"/>
<path d="M55.0667 10.2857H56.1333V11.3572H55.0667V10.2857Z" fill="white"/>
<path d="M57.2 10.2857H58.2666V11.3572H57.2V10.2857Z" fill="white"/>
<path d="M56.1333 10.2857H57.2V11.3572H56.1333V10.2857Z" fill="white"/>
<path d="M58.2666 10.2857H59.3333V11.3572H58.2666V10.2857Z" fill="white"/>
<path d="M59.3333 10.2857H60.3999V11.3572H59.3333V10.2857Z" fill="white"/>
<path d="M55.0667 11.3572H56.1333V12.4286H55.0667V11.3572Z" fill="white"/>
<path d="M57.2 11.3572H58.2666V12.4286H57.2V11.3572Z" fill="white"/>
<path d="M56.1333 11.3572H57.2V12.4286H56.1333V11.3572Z" fill="white"/>
<path d="M58.2666 11.3572H59.3333V12.4286H58.2666V11.3572Z" fill="white"/>
<path d="M59.3333 11.3572H60.3999V12.4286H59.3333V11.3572Z" fill="white"/>
<path d="M57.2 12.4286H58.2666V13.5H57.2V12.4286Z" fill="white"/>
<path d="M56.1333 12.4286H57.2V13.5H56.1333V12.4286Z" fill="white"/>
<path d="M58.2666 12.4286H59.3333V13.5H58.2666V12.4286Z" fill="white"/>
<path d="M59.3333 12.4286H60.3999V13.5H59.3333V12.4286Z" fill="white"/>
<path d="M57.2 13.5H58.2666V14.5714H57.2V13.5Z" fill="white"/>
<path d="M56.1333 13.5H57.2V14.5714H56.1333V13.5Z" fill="white"/>
<path d="M58.2666 13.5H59.3333V14.5714H58.2666V13.5Z" fill="white"/>
<path d="M59.3333 13.5H60.3999V14.5714H59.3333V13.5Z" fill="white"/>
<path d="M57.2 14.5714H58.2666V15.6429H57.2V14.5714Z" fill="white"/>
<path d="M58.2666 14.5714H59.3333V15.6429H58.2666V14.5714Z" fill="white"/>
<path d="M59.3333 14.5714H60.3999V15.6429H59.3333V14.5714Z" fill="white"/>
<path d="M58.2666 15.6429H59.3333V16.7143H58.2666V15.6429Z" fill="white"/>
<path d="M59.3333 15.6429H60.3999V16.7143H59.3333V15.6429Z" fill="white"/>
<path d="M59.3333 16.7143H60.3999V17.7857H59.3333V16.7143Z" fill="white"/>
<path d="M63.5999 8.14287H64.6665V9.2143H63.5999V8.14287Z" fill="white"/>
<path d="M65.7332 8.14287H66.7998V9.2143H65.7332V8.14287Z" fill="white"/>
<path d="M64.6665 8.14287H65.7332V9.2143H64.6665V8.14287Z" fill="white"/>
<path d="M66.7998 8.14287H67.8665V9.2143H66.7998V8.14287Z" fill="white"/>
<path d="M67.8667 8.14287H68.9334V9.2143H67.8667V8.14287Z" fill="white"/>
<path d="M63.5999 9.2143H64.6665V10.2857H63.5999V9.2143Z" fill="white"/>
<path d="M65.7332 9.2143H66.7998V10.2857H65.7332V9.2143Z" fill="white"/>
<path d="M64.6665 9.2143H65.7332V10.2857H64.6665V9.2143Z" fill="white"/>
<path d="M66.7998 9.2143H67.8665V10.2857H66.7998V9.2143Z" fill="white"/>
<path d="M67.8667 9.2143H68.9334V10.2857H67.8667V9.2143Z" fill="white"/>
<path d="M63.5999 10.2857H64.6665V11.3572H63.5999V10.2857Z" fill="white"/>
<path d="M65.7332 10.2857H66.7998V11.3572H65.7332V10.2857Z" fill="white"/>
<path d="M64.6665 10.2857H65.7332V11.3572H64.6665V10.2857Z" fill="white"/>
<path d="M66.7998 10.2857H67.8665V11.3572H66.7998V10.2857Z" fill="white"/>
<path d="M67.8667 10.2857H68.9334V11.3572H67.8667V10.2857Z" fill="white"/>
<path d="M63.5999 11.3572H64.6665V12.4286H63.5999V11.3572Z" fill="white"/>
<path d="M65.7332 11.3572H66.7998V12.4286H65.7332V11.3572Z" fill="white"/>
<path d="M64.6665 11.3572H65.7332V12.4286H64.6665V11.3572Z" fill="white"/>
<path d="M66.7998 11.3572H67.8665V12.4286H66.7998V11.3572Z" fill="white"/>
<path d="M63.5999 12.4286H64.6665V13.5H63.5999V12.4286Z" fill="white"/>
<path d="M65.7332 12.4286H66.7998V13.5H65.7332V12.4286Z" fill="white"/>
<path d="M64.6665 12.4286H65.7332V13.5H64.6665V12.4286Z" fill="white"/>
<path d="M66.7998 12.4286H67.8665V13.5H66.7998V12.4286Z" fill="white"/>
<path d="M63.5999 13.5H64.6665V14.5714H63.5999V13.5Z" fill="white"/>
<path d="M65.7332 13.5H66.7998V14.5714H65.7332V13.5Z" fill="white"/>
<path d="M64.6665 13.5H65.7332V14.5714H64.6665V13.5Z" fill="white"/>
<path d="M63.5999 14.5714H64.6665V15.6429H63.5999V14.5714Z" fill="white"/>
<path d="M65.7332 14.5714H66.7998V15.6429H65.7332V14.5714Z" fill="white"/>
<path d="M64.6665 14.5714H65.7332V15.6429H64.6665V14.5714Z" fill="white"/>
<path d="M63.5999 15.6429H64.6665V16.7143H63.5999V15.6429Z" fill="white"/>
<path d="M63.5999 16.7143H64.6665V17.7857H63.5999V16.7143Z" fill="white"/>
<path d="M64.6665 15.6429H65.7332V16.7143H64.6665V15.6429Z" fill="white"/>
<path d="M66.7998 13.5H67.8665V14.5714H66.7998V13.5Z" fill="white"/>
<path d="M67.8667 11.3572H68.9334V12.4286H67.8667V11.3572Z" fill="white"/>
<path d="M60.3999 8.14287H61.4666V9.2143H60.3999V8.14287Z" fill="black"/>
<path d="M61.4666 9.21429H62.5332V10.2857H61.4666V9.21429Z" fill="black"/>
<path d="M63.6001 7.07145H64.6668V8.14288H63.6001V7.07145Z" fill="black"/>
<path d="M62.5332 8.14287H63.5999V9.2143H62.5332V8.14287Z" fill="black"/>
<path d="M60.3999 9.21429H61.4666V10.2857H60.3999V9.21429Z" fill="white"/>
<path d="M61.4666 10.2857H62.5332V11.3571H61.4666V10.2857Z" fill="white"/>
<path d="M62.5332 9.21429H63.5999V10.2857H62.5332V9.21429Z" fill="white"/>
<path d="M60.3999 10.2857H61.4666V11.3571H60.3999V10.2857Z" fill="white"/>
<path d="M61.4666 11.3572H62.5332V12.4286H61.4666V11.3572Z" fill="white"/>
<path d="M62.5332 10.2857H63.5999V11.3571H62.5332V10.2857Z" fill="white"/>
<path d="M60.3999 11.3572H61.4666V12.4286H60.3999V11.3572Z" fill="white"/>
<path d="M61.4666 12.4286H62.5332V13.5H61.4666V12.4286Z" fill="white"/>
<path d="M62.5332 11.3572H63.5999V12.4286H62.5332V11.3572Z" fill="white"/>
<path d="M60.3999 12.4286H61.4666V13.5H60.3999V12.4286Z" fill="white"/>
<path d="M61.4666 13.5H62.5332V14.5714H61.4666V13.5Z" fill="white"/>
<path d="M62.5332 12.4286H63.5999V13.5H62.5332V12.4286Z" fill="white"/>
<path d="M60.3999 13.5H61.4666V14.5714H60.3999V13.5Z" fill="white"/>
<path d="M61.4666 14.5714H62.5332V15.6429H61.4666V14.5714Z" fill="white"/>
<path d="M62.5332 13.5H63.5999V14.5714H62.5332V13.5Z" fill="white"/>
<path d="M60.3999 14.5714H61.4666V15.6429H60.3999V14.5714Z" fill="white"/>
<path d="M61.4666 15.6429H62.5332V16.7143H61.4666V15.6429Z" fill="white"/>
<path d="M62.5332 14.5714H63.5999V15.6429H62.5332V14.5714Z" fill="white"/>
<path d="M60.3999 15.6429H61.4666V16.7143H60.3999V15.6429Z" fill="white"/>
<path d="M61.4666 16.7143H62.5332V17.7857H61.4666V16.7143Z" fill="white"/>
<path d="M62.5332 15.6429H63.5999V16.7143H62.5332V15.6429Z" fill="white"/>
<path d="M60.3999 16.7143H61.4666V17.7857H60.3999V16.7143Z" fill="white"/>
<path d="M61.4666 17.7857H62.5332V18.8572H61.4666V17.7857Z" fill="white"/>
<path d="M62.5332 16.7143H63.5999V17.7857H62.5332V16.7143Z" fill="white"/>
<path d="M60.3999 17.7857H61.4666V18.8572H60.3999V17.7857Z" fill="white"/>
<path d="M61.4666 18.8571H62.5332V19.9286H61.4666V18.8571Z" fill="white"/>
<path d="M62.5332 17.7857H63.5999V18.8572H62.5332V17.7857Z" fill="white"/>
<path d="M60.3999 18.8571H61.4666V19.9286H60.3999V18.8571Z" fill="black"/>
<path d="M61.4666 19.9286H62.5332V21H61.4666V19.9286Z" fill="black"/>
<path d="M62.5332 18.8571H63.5999V19.9286H62.5332V18.8571Z" fill="black"/>
<path d="M64.6665 6H65.7332V7.07143H64.6665V6Z" fill="black"/>
<path d="M65.7334 6H66.8001V7.07143H65.7334V6Z" fill="black"/>
<path d="M66.8 6H67.8667V7.07143H66.8V6Z" fill="black"/>
<path d="M76 8.14287H77.0667V9.2143H76V8.14287Z" fill="black"/>
<path d="M90.9333 8.14287H92V9.2143H90.9333V8.14287Z" fill="black"/>
<path d="M76 9.21429H77.0667V10.2857H76V9.21429Z" fill="black"/>
<path d="M90.9333 9.21429H92V10.2857H90.9333V9.21429Z" fill="black"/>
<path d="M76 10.2857H77.0667V11.3571H76V10.2857Z" fill="black"/>
<path d="M90.9333 10.2857H92V11.3571H90.9333V10.2857Z" fill="black"/>
<path d="M77.0667 12.4286H78.1333V13.5H77.0667V12.4286Z" fill="black"/>
<path d="M89.8667 12.4286H90.9334V13.5H89.8667V12.4286Z" fill="black"/>
<path d="M76 11.3572H77.0667V12.4286H76V11.3572Z" fill="black"/>
<path d="M90.9333 11.3572H92V12.4286H90.9333V11.3572Z" fill="black"/>
<path d="M77.0667 13.5H78.1333V14.5714H77.0667V13.5Z" fill="black"/>
<path d="M89.8667 13.5H90.9334V14.5714H89.8667V13.5Z" fill="black"/>
<path d="M78.1333 14.5714H79.2V15.6429H78.1333V14.5714Z" fill="black"/>
<path d="M88.8 14.5714H89.8667V15.6429H88.8V14.5714Z" fill="black"/>
<path d="M79.2 15.6429H80.2666V16.7143H79.2V15.6429Z" fill="black"/>
<path d="M87.7334 15.6429H88.8001V16.7143H87.7334V15.6429Z" fill="black"/>
<path d="M80.2666 16.7143H81.3333V17.7857H80.2666V16.7143Z" fill="black"/>
<path d="M86.6665 16.7143H87.7332V17.7857H86.6665V16.7143Z" fill="black"/>
<path d="M81.3333 17.7857H82.3999V18.8572H81.3333V17.7857Z" fill="black"/>
<path d="M85.6001 17.7857H86.6668V18.8572H85.6001V17.7857Z" fill="black"/>
<path d="M77.0667 7.07145H78.1333V8.14288H77.0667V7.07145Z" fill="black"/>
<path d="M89.8667 7.07145H90.9334V8.14288H89.8667V7.07145Z" fill="black"/>
<path d="M79.2 6H80.2666V7.07143H79.2V6Z" fill="black"/>
<path d="M78.1333 6H79.2V7.07143H78.1333V6Z" fill="black"/>
<path d="M80.2666 6H81.3333V7.07143H80.2666V6Z" fill="black"/>
<path d="M79.2 7.07145H80.2666V8.14288H79.2V7.07145Z" fill="white"/>
<path d="M78.1333 7.07145H79.2V8.14288H78.1333V7.07145Z" fill="white"/>
<path d="M80.2666 7.07145H81.3333V8.14288H80.2666V7.07145Z" fill="white"/>
<path d="M87.7334 7.07145H88.8001V8.14288H87.7334V7.07145Z" fill="white"/>
<path d="M86.6665 7.07145H87.7332V8.14288H86.6665V7.07145Z" fill="white"/>
<path d="M88.8 7.07145H89.8667V8.14288H88.8V7.07145Z" fill="white"/>
<path d="M81.3333 7.07145H82.3999V8.14288H81.3333V7.07145Z" fill="black"/>
<path d="M77.0667 8.14287H78.1333V9.2143H77.0667V8.14287Z" fill="white"/>
<path d="M79.2 8.14287H80.2666V9.2143H79.2V8.14287Z" fill="white"/>
<path d="M78.1333 8.14287H79.2V9.2143H78.1333V8.14287Z" fill="white"/>
<path d="M80.2666 8.14287H81.3333V9.2143H80.2666V8.14287Z" fill="white"/>
<path d="M81.3333 8.14287H82.3999V9.2143H81.3333V8.14287Z" fill="white"/>
<path d="M77.0667 9.21429H78.1333V10.2857H77.0667V9.21429Z" fill="white"/>
<path d="M79.2 9.21429H80.2666V10.2857H79.2V9.21429Z" fill="white"/>
<path d="M78.1333 9.21429H79.2V10.2857H78.1333V9.21429Z" fill="white"/>
<path d="M80.2666 9.2143H81.3333V10.2857H80.2666V9.2143Z" fill="white"/>
<path d="M81.3333 9.2143H82.3999V10.2857H81.3333V9.2143Z" fill="white"/>
<path d="M77.0667 10.2857H78.1333V11.3572H77.0667V10.2857Z" fill="white"/>
<path d="M79.2 10.2857H80.2666V11.3572H79.2V10.2857Z" fill="white"/>
<path d="M78.1333 10.2857H79.2V11.3572H78.1333V10.2857Z" fill="white"/>
<path d="M80.2666 10.2857H81.3333V11.3572H80.2666V10.2857Z" fill="white"/>
<path d="M81.3333 10.2857H82.3999V11.3572H81.3333V10.2857Z" fill="white"/>
<path d="M77.0667 11.3572H78.1333V12.4286H77.0667V11.3572Z" fill="white"/>
<path d="M79.2 11.3572H80.2666V12.4286H79.2V11.3572Z" fill="white"/>
<path d="M78.1333 11.3572H79.2V12.4286H78.1333V11.3572Z" fill="white"/>
<path d="M80.2666 11.3572H81.3333V12.4286H80.2666V11.3572Z" fill="white"/>
<path d="M81.3333 11.3572H82.3999V12.4286H81.3333V11.3572Z" fill="white"/>
<path d="M79.2 12.4286H80.2666V13.5H79.2V12.4286Z" fill="white"/>
<path d="M78.1333 12.4286H79.2V13.5H78.1333V12.4286Z" fill="white"/>
<path d="M80.2666 12.4286H81.3333V13.5H80.2666V12.4286Z" fill="white"/>
<path d="M81.3333 12.4286H82.3999V13.5H81.3333V12.4286Z" fill="white"/>
<path d="M79.2 13.5H80.2666V14.5714H79.2V13.5Z" fill="white"/>
<path d="M78.1333 13.5H79.2V14.5714H78.1333V13.5Z" fill="white"/>
<path d="M80.2666 13.5H81.3333V14.5714H80.2666V13.5Z" fill="white"/>
<path d="M81.3333 13.5H82.3999V14.5714H81.3333V13.5Z" fill="white"/>
<path d="M79.2 14.5714H80.2666V15.6429H79.2V14.5714Z" fill="white"/>
<path d="M80.2666 14.5714H81.3333V15.6429H80.2666V14.5714Z" fill="white"/>
<path d="M81.3333 14.5714H82.3999V15.6429H81.3333V14.5714Z" fill="white"/>
<path d="M80.2666 15.6429H81.3333V16.7143H80.2666V15.6429Z" fill="white"/>
<path d="M81.3333 15.6429H82.3999V16.7143H81.3333V15.6429Z" fill="white"/>
<path d="M81.3333 16.7143H82.3999V17.7857H81.3333V16.7143Z" fill="white"/>
<path d="M85.5999 8.14287H86.6665V9.2143H85.5999V8.14287Z" fill="white"/>
<path d="M87.7332 8.14287H88.7998V9.2143H87.7332V8.14287Z" fill="white"/>
<path d="M86.6665 8.14287H87.7332V9.2143H86.6665V8.14287Z" fill="white"/>
<path d="M88.7998 8.14287H89.8665V9.2143H88.7998V8.14287Z" fill="white"/>
<path d="M89.8667 8.14287H90.9334V9.2143H89.8667V8.14287Z" fill="white"/>
<path d="M85.5999 9.2143H86.6665V10.2857H85.5999V9.2143Z" fill="white"/>
<path d="M87.7332 9.2143H88.7998V10.2857H87.7332V9.2143Z" fill="white"/>
<path d="M86.6665 9.2143H87.7332V10.2857H86.6665V9.2143Z" fill="white"/>
<path d="M88.7998 9.2143H89.8665V10.2857H88.7998V9.2143Z" fill="white"/>
<path d="M89.8667 9.2143H90.9334V10.2857H89.8667V9.2143Z" fill="white"/>
<path d="M85.5999 10.2857H86.6665V11.3572H85.5999V10.2857Z" fill="white"/>
<path d="M87.7332 10.2857H88.7998V11.3572H87.7332V10.2857Z" fill="white"/>
<path d="M86.6665 10.2857H87.7332V11.3572H86.6665V10.2857Z" fill="white"/>
<path d="M88.7998 10.2857H89.8665V11.3572H88.7998V10.2857Z" fill="white"/>
<path d="M89.8667 10.2857H90.9334V11.3572H89.8667V10.2857Z" fill="white"/>
<path d="M85.5999 11.3572H86.6665V12.4286H85.5999V11.3572Z" fill="white"/>
<path d="M87.7332 11.3572H88.7998V12.4286H87.7332V11.3572Z" fill="white"/>
<path d="M86.6665 11.3572H87.7332V12.4286H86.6665V11.3572Z" fill="white"/>
<path d="M88.7998 11.3572H89.8665V12.4286H88.7998V11.3572Z" fill="white"/>
<path d="M85.5999 12.4286H86.6665V13.5H85.5999V12.4286Z" fill="white"/>
<path d="M87.7332 12.4286H88.7998V13.5H87.7332V12.4286Z" fill="white"/>
<path d="M86.6665 12.4286H87.7332V13.5H86.6665V12.4286Z" fill="white"/>
<path d="M88.7998 12.4286H89.8665V13.5H88.7998V12.4286Z" fill="white"/>
<path d="M85.5999 13.5H86.6665V14.5714H85.5999V13.5Z" fill="white"/>
<path d="M87.7332 13.5H88.7998V14.5714H87.7332V13.5Z" fill="white"/>
<path d="M86.6665 13.5H87.7332V14.5714H86.6665V13.5Z" fill="white"/>
<path d="M85.5999 14.5714H86.6665V15.6429H85.5999V14.5714Z" fill="white"/>
<path d="M87.7332 14.5714H88.7998V15.6429H87.7332V14.5714Z" fill="white"/>
<path d="M86.6665 14.5714H87.7332V15.6429H86.6665V14.5714Z" fill="white"/>
<path d="M85.5999 15.6429H86.6665V16.7143H85.5999V15.6429Z" fill="white"/>
<path d="M85.5999 16.7143H86.6665V17.7857H85.5999V16.7143Z" fill="white"/>
<path d="M86.6665 15.6429H87.7332V16.7143H86.6665V15.6429Z" fill="white"/>
<path d="M88.7998 13.5H89.8665V14.5714H88.7998V13.5Z" fill="white"/>
<path d="M89.8667 11.3572H90.9334V12.4286H89.8667V11.3572Z" fill="white"/>
<path d="M82.3999 8.14287H83.4666V9.2143H82.3999V8.14287Z" fill="black"/>
<path d="M83.4666 9.21429H84.5332V10.2857H83.4666V9.21429Z" fill="black"/>
<path d="M85.6001 7.07145H86.6668V8.14288H85.6001V7.07145Z" fill="black"/>
<path d="M84.5332 8.14287H85.5999V9.2143H84.5332V8.14287Z" fill="black"/>
<path d="M82.3999 9.21429H83.4666V10.2857H82.3999V9.21429Z" fill="white"/>
<path d="M83.4666 10.2857H84.5332V11.3571H83.4666V10.2857Z" fill="white"/>
<path d="M84.5332 9.21429H85.5999V10.2857H84.5332V9.21429Z" fill="white"/>
<path d="M82.3999 10.2857H83.4666V11.3571H82.3999V10.2857Z" fill="white"/>
<path d="M83.4666 11.3572H84.5332V12.4286H83.4666V11.3572Z" fill="white"/>
<path d="M84.5332 10.2857H85.5999V11.3571H84.5332V10.2857Z" fill="white"/>
<path d="M82.3999 11.3572H83.4666V12.4286H82.3999V11.3572Z" fill="white"/>
<path d="M83.4666 12.4286H84.5332V13.5H83.4666V12.4286Z" fill="white"/>
<path d="M84.5332 11.3572H85.5999V12.4286H84.5332V11.3572Z" fill="white"/>
<path d="M82.3999 12.4286H83.4666V13.5H82.3999V12.4286Z" fill="white"/>
<path d="M83.4666 13.5H84.5332V14.5714H83.4666V13.5Z" fill="white"/>
<path d="M84.5332 12.4286H85.5999V13.5H84.5332V12.4286Z" fill="white"/>
<path d="M82.3999 13.5H83.4666V14.5714H82.3999V13.5Z" fill="white"/>
<path d="M83.4666 14.5714H84.5332V15.6429H83.4666V14.5714Z" fill="white"/>
<path d="M84.5332 13.5H85.5999V14.5714H84.5332V13.5Z" fill="white"/>
<path d="M82.3999 14.5714H83.4666V15.6429H82.3999V14.5714Z" fill="white"/>
<path d="M83.4666 15.6429H84.5332V16.7143H83.4666V15.6429Z" fill="white"/>
<path d="M84.5332 14.5714H85.5999V15.6429H84.5332V14.5714Z" fill="white"/>
<path d="M82.3999 15.6429H83.4666V16.7143H82.3999V15.6429Z" fill="white"/>
<path d="M83.4666 16.7143H84.5332V17.7857H83.4666V16.7143Z" fill="white"/>
<path d="M84.5332 15.6429H85.5999V16.7143H84.5332V15.6429Z" fill="white"/>
<path d="M82.3999 16.7143H83.4666V17.7857H82.3999V16.7143Z" fill="white"/>
<path d="M83.4666 17.7857H84.5332V18.8572H83.4666V17.7857Z" fill="white"/>
<path d="M84.5332 16.7143H85.5999V17.7857H84.5332V16.7143Z" fill="white"/>
<path d="M82.3999 17.7857H83.4666V18.8572H82.3999V17.7857Z" fill="white"/>
<path d="M83.4666 18.8571H84.5332V19.9286H83.4666V18.8571Z" fill="white"/>
<path d="M84.5332 17.7857H85.5999V18.8572H84.5332V17.7857Z" fill="white"/>
<path d="M82.3999 18.8571H83.4666V19.9286H82.3999V18.8571Z" fill="black"/>
<path d="M83.4666 19.9286H84.5332V21H83.4666V19.9286Z" fill="black"/>
<path d="M84.5332 18.8571H85.5999V19.9286H84.5332V18.8571Z" fill="black"/>
<path d="M86.6665 6H87.7332V7.07143H86.6665V6Z" fill="black"/>
<path d="M87.7334 6H88.8001V7.07143H87.7334V6Z" fill="black"/>
<path d="M88.8 6H89.8667V7.07143H88.8V6Z" fill="black"/>
<path d="M98 8.14287H99.0667V9.2143H98V8.14287Z" fill="black"/>
<path d="M112.933 8.14287H114V9.2143H112.933V8.14287Z" fill="black"/>
<path d="M98 9.21429H99.0667V10.2857H98V9.21429Z" fill="black"/>
<path d="M112.933 9.21429H114V10.2857H112.933V9.21429Z" fill="black"/>
<path d="M98 10.2857H99.0667V11.3571H98V10.2857Z" fill="black"/>
<path d="M112.933 10.2857H114V11.3571H112.933V10.2857Z" fill="black"/>
<path d="M99.0667 12.4286H100.133V13.5H99.0667V12.4286Z" fill="black"/>
<path d="M111.867 12.4286H112.933V13.5H111.867V12.4286Z" fill="black"/>
<path d="M98 11.3572H99.0667V12.4286H98V11.3572Z" fill="black"/>
<path d="M112.933 11.3572H114V12.4286H112.933V11.3572Z" fill="black"/>
<path d="M99.0667 13.5H100.133V14.5714H99.0667V13.5Z" fill="black"/>
<path d="M111.867 13.5H112.933V14.5714H111.867V13.5Z" fill="black"/>
<path d="M100.133 14.5714H101.2V15.6429H100.133V14.5714Z" fill="black"/>
<path d="M110.8 14.5714H111.867V15.6429H110.8V14.5714Z" fill="black"/>
<path d="M101.2 15.6429H102.267V16.7143H101.2V15.6429Z" fill="black"/>
<path d="M109.733 15.6429H110.8V16.7143H109.733V15.6429Z" fill="black"/>
<path d="M102.267 16.7143H103.333V17.7857H102.267V16.7143Z" fill="black"/>
<path d="M108.667 16.7143H109.733V17.7857H108.667V16.7143Z" fill="black"/>
<path d="M103.333 17.7857H104.4V18.8572H103.333V17.7857Z" fill="black"/>
<path d="M107.6 17.7857H108.667V18.8572H107.6V17.7857Z" fill="black"/>
<path d="M99.0667 7.07145H100.133V8.14288H99.0667V7.07145Z" fill="black"/>
<path d="M111.867 7.07145H112.933V8.14288H111.867V7.07145Z" fill="black"/>
<path d="M101.2 6H102.267V7.07143H101.2V6Z" fill="black"/>
<path d="M100.133 6H101.2V7.07143H100.133V6Z" fill="black"/>
<path d="M102.267 6H103.333V7.07143H102.267V6Z" fill="black"/>
<path d="M101.2 7.07145H102.267V8.14288H101.2V7.07145Z" fill="white"/>
<path d="M100.133 7.07145H101.2V8.14288H100.133V7.07145Z" fill="white"/>
<path d="M102.267 7.07145H103.333V8.14288H102.267V7.07145Z" fill="white"/>
<path d="M109.733 7.07145H110.8V8.14288H109.733V7.07145Z" fill="white"/>
<path d="M108.667 7.07145H109.733V8.14288H108.667V7.07145Z" fill="white"/>
<path d="M110.8 7.07145H111.867V8.14288H110.8V7.07145Z" fill="white"/>
<path d="M103.333 7.07145H104.4V8.14288H103.333V7.07145Z" fill="black"/>
<path d="M99.0667 8.14287H100.133V9.2143H99.0667V8.14287Z" fill="white"/>
<path d="M101.2 8.14287H102.267V9.2143H101.2V8.14287Z" fill="white"/>
<path d="M100.133 8.14287H101.2V9.2143H100.133V8.14287Z" fill="white"/>
<path d="M102.267 8.14287H103.333V9.2143H102.267V8.14287Z" fill="white"/>
<path d="M103.333 8.14287H104.4V9.2143H103.333V8.14287Z" fill="white"/>
<path d="M99.0667 9.21429H100.133V10.2857H99.0667V9.21429Z" fill="white"/>
<path d="M101.2 9.21429H102.267V10.2857H101.2V9.21429Z" fill="white"/>
<path d="M100.133 9.21429H101.2V10.2857H100.133V9.21429Z" fill="white"/>
<path d="M102.267 9.2143H103.333V10.2857H102.267V9.2143Z" fill="white"/>
<path d="M103.333 9.2143H104.4V10.2857H103.333V9.2143Z" fill="white"/>
<path d="M99.0667 10.2857H100.133V11.3572H99.0667V10.2857Z" fill="white"/>
<path d="M101.2 10.2857H102.267V11.3572H101.2V10.2857Z" fill="white"/>
<path d="M100.133 10.2857H101.2V11.3572H100.133V10.2857Z" fill="white"/>
<path d="M102.267 10.2857H103.333V11.3572H102.267V10.2857Z" fill="white"/>
<path d="M103.333 10.2857H104.4V11.3572H103.333V10.2857Z" fill="white"/>
<path d="M99.0667 11.3572H100.133V12.4286H99.0667V11.3572Z" fill="white"/>
<path d="M101.2 11.3572H102.267V12.4286H101.2V11.3572Z" fill="white"/>
<path d="M100.133 11.3572H101.2V12.4286H100.133V11.3572Z" fill="white"/>
<path d="M102.267 11.3572H103.333V12.4286H102.267V11.3572Z" fill="white"/>
<path d="M103.333 11.3572H104.4V12.4286H103.333V11.3572Z" fill="white"/>
<path d="M101.2 12.4286H102.267V13.5H101.2V12.4286Z" fill="white"/>
<path d="M100.133 12.4286H101.2V13.5H100.133V12.4286Z" fill="white"/>
<path d="M102.267 12.4286H103.333V13.5H102.267V12.4286Z" fill="white"/>
<path d="M103.333 12.4286H104.4V13.5H103.333V12.4286Z" fill="white"/>
<path d="M101.2 13.5H102.267V14.5714H101.2V13.5Z" fill="white"/>
<path d="M100.133 13.5H101.2V14.5714H100.133V13.5Z" fill="white"/>
<path d="M102.267 13.5H103.333V14.5714H102.267V13.5Z" fill="white"/>
<path d="M103.333 13.5H104.4V14.5714H103.333V13.5Z" fill="white"/>
<path d="M101.2 14.5714H102.267V15.6429H101.2V14.5714Z" fill="white"/>
<path d="M102.267 14.5714H103.333V15.6429H102.267V14.5714Z" fill="white"/>
<path d="M103.333 14.5714H104.4V15.6429H103.333V14.5714Z" fill="white"/>
<path d="M102.267 15.6429H103.333V16.7143H102.267V15.6429Z" fill="white"/>
<path d="M103.333 15.6429H104.4V16.7143H103.333V15.6429Z" fill="white"/>
<path d="M103.333 16.7143H104.4V17.7857H103.333V16.7143Z" fill="white"/>
<path d="M107.6 8.14287H108.667V9.2143H107.6V8.14287Z" fill="white"/>
<path d="M109.733 8.14287H110.8V9.2143H109.733V8.14287Z" fill="white"/>
<path d="M108.667 8.14287H109.733V9.2143H108.667V8.14287Z" fill="white"/>
<path d="M110.8 8.14287H111.866V9.2143H110.8V8.14287Z" fill="white"/>
<path d="M111.867 8.14287H112.933V9.2143H111.867V8.14287Z" fill="white"/>
<path d="M107.6 9.2143H108.667V10.2857H107.6V9.2143Z" fill="white"/>
<path d="M109.733 9.2143H110.8V10.2857H109.733V9.2143Z" fill="white"/>
<path d="M108.667 9.2143H109.733V10.2857H108.667V9.2143Z" fill="white"/>
<path d="M110.8 9.2143H111.866V10.2857H110.8V9.2143Z" fill="white"/>
<path d="M111.867 9.2143H112.933V10.2857H111.867V9.2143Z" fill="white"/>
<path d="M107.6 10.2857H108.667V11.3572H107.6V10.2857Z" fill="white"/>
<path d="M109.733 10.2857H110.8V11.3572H109.733V10.2857Z" fill="white"/>
<path d="M108.667 10.2857H109.733V11.3572H108.667V10.2857Z" fill="white"/>
<path d="M110.8 10.2857H111.866V11.3572H110.8V10.2857Z" fill="white"/>
<path d="M111.867 10.2857H112.933V11.3572H111.867V10.2857Z" fill="white"/>
<path d="M107.6 11.3572H108.667V12.4286H107.6V11.3572Z" fill="white"/>
<path d="M109.733 11.3572H110.8V12.4286H109.733V11.3572Z" fill="white"/>
<path d="M108.667 11.3572H109.733V12.4286H108.667V11.3572Z" fill="white"/>
<path d="M110.8 11.3572H111.866V12.4286H110.8V11.3572Z" fill="white"/>
<path d="M107.6 12.4286H108.667V13.5H107.6V12.4286Z" fill="white"/>
<path d="M109.733 12.4286H110.8V13.5H109.733V12.4286Z" fill="white"/>
<path d="M108.667 12.4286H109.733V13.5H108.667V12.4286Z" fill="white"/>
<path d="M110.8 12.4286H111.866V13.5H110.8V12.4286Z" fill="white"/>
<path d="M107.6 13.5H108.667V14.5714H107.6V13.5Z" fill="white"/>
<path d="M109.733 13.5H110.8V14.5714H109.733V13.5Z" fill="white"/>
<path d="M108.667 13.5H109.733V14.5714H108.667V13.5Z" fill="white"/>
<path d="M107.6 14.5714H108.667V15.6429H107.6V14.5714Z" fill="white"/>
<path d="M109.733 14.5714H110.8V15.6429H109.733V14.5714Z" fill="white"/>
<path d="M108.667 14.5714H109.733V15.6429H108.667V14.5714Z" fill="white"/>
<path d="M107.6 15.6429H108.667V16.7143H107.6V15.6429Z" fill="white"/>
<path d="M107.6 16.7143H108.667V17.7857H107.6V16.7143Z" fill="white"/>
<path d="M108.667 15.6429H109.733V16.7143H108.667V15.6429Z" fill="white"/>
<path d="M110.8 13.5H111.866V14.5714H110.8V13.5Z" fill="white"/>
<path d="M111.867 11.3572H112.933V12.4286H111.867V11.3572Z" fill="white"/>
<path d="M104.4 8.14287H105.467V9.2143H104.4V8.14287Z" fill="black"/>
<path d="M105.467 9.21429H106.533V10.2857H105.467V9.21429Z" fill="black"/>
<path d="M107.6 7.07145H108.667V8.14288H107.6V7.07145Z" fill="black"/>
<path d="M106.533 8.14287H107.6V9.2143H106.533V8.14287Z" fill="black"/>
<path d="M104.4 9.21429H105.467V10.2857H104.4V9.21429Z" fill="white"/>
<path d="M105.467 10.2857H106.533V11.3571H105.467V10.2857Z" fill="white"/>
<path d="M106.533 9.21429H107.6V10.2857H106.533V9.21429Z" fill="white"/>
<path d="M104.4 10.2857H105.467V11.3571H104.4V10.2857Z" fill="white"/>
<path d="M105.467 11.3572H106.533V12.4286H105.467V11.3572Z" fill="white"/>
<path d="M106.533 10.2857H107.6V11.3571H106.533V10.2857Z" fill="white"/>
<path d="M104.4 11.3572H105.467V12.4286H104.4V11.3572Z" fill="white"/>
<path d="M105.467 12.4286H106.533V13.5H105.467V12.4286Z" fill="white"/>
<path d="M106.533 11.3572H107.6V12.4286H106.533V11.3572Z" fill="white"/>
<path d="M104.4 12.4286H105.467V13.5H104.4V12.4286Z" fill="white"/>
<path d="M105.467 13.5H106.533V14.5714H105.467V13.5Z" fill="white"/>
<path d="M106.533 12.4286H107.6V13.5H106.533V12.4286Z" fill="white"/>
<path d="M104.4 13.5H105.467V14.5714H104.4V13.5Z" fill="white"/>
<path d="M105.467 14.5714H106.533V15.6429H105.467V14.5714Z" fill="white"/>
<path d="M106.533 13.5H107.6V14.5714H106.533V13.5Z" fill="white"/>
<path d="M104.4 14.5714H105.467V15.6429H104.4V14.5714Z" fill="white"/>
<path d="M105.467 15.6429H106.533V16.7143H105.467V15.6429Z" fill="white"/>
<path d="M106.533 14.5714H107.6V15.6429H106.533V14.5714Z" fill="white"/>
<path d="M104.4 15.6429H105.467V16.7143H104.4V15.6429Z" fill="white"/>
<path d="M105.467 16.7143H106.533V17.7857H105.467V16.7143Z" fill="white"/>
<path d="M106.533 15.6429H107.6V16.7143H106.533V15.6429Z" fill="white"/>
<path d="M104.4 16.7143H105.467V17.7857H104.4V16.7143Z" fill="white"/>
<path d="M105.467 17.7857H106.533V18.8572H105.467V17.7857Z" fill="white"/>
<path d="M106.533 16.7143H107.6V17.7857H106.533V16.7143Z" fill="white"/>
<path d="M104.4 17.7857H105.467V18.8572H104.4V17.7857Z" fill="white"/>
<path d="M105.467 18.8571H106.533V19.9286H105.467V18.8571Z" fill="white"/>
<path d="M106.533 17.7857H107.6V18.8572H106.533V17.7857Z" fill="white"/>
<path d="M104.4 18.8571H105.467V19.9286H104.4V18.8571Z" fill="black"/>
<path d="M105.467 19.9286H106.533V21H105.467V19.9286Z" fill="black"/>
<path d="M106.533 18.8571H107.6V19.9286H106.533V18.8571Z" fill="black"/>
<path d="M108.667 6H109.733V7.07143H108.667V6Z" fill="black"/>
<path d="M109.733 6H110.8V7.07143H109.733V6Z" fill="black"/>
<path d="M110.8 6H111.867V7.07143H110.8V6Z" fill="black"/>
</svg>
